<?xml version="1.0" encoding="UTF-8" standalone="no"?>
<svg height="532.0" viewBox="0 0 530.0 532.0" width="530.0" xmlns="http://www.w3.org/2000/svg">
    <style><![CDATA[
/* ----------------------------------------------------------------------- */
/* File: tautologies.css ------------------------------------------------- */
.sld-out .sld-arrow-in {visibility: hidden}
.sld-in .sld-arrow-out {visibility: hidden}
.sld-closed .sld-sw-open {visibility: hidden}
.sld-open .sld-sw-closed {visibility: hidden}
.sld-hidden-node {visibility: hidden}
.sld-top-feeder .sld-label {dominant-baseline: auto}
.sld-bottom-feeder .sld-label {dominant-baseline: hanging}
.sld-active-power .sld-label {dominant-baseline: mathematical}
.sld-reactive-power .sld-label {dominant-baseline: mathematical}
.sld-current .sld-label {dominant-baseline: mathematical}
/* ----------------------------------------------------------------------- */
/* File: topologicalBaseVoltages.css ------------------------------------- */
.sld-disconnected {--sld-vl-color: #808080}
.sld-vl300to500-0 {--sld-vl-color: #FF0000}
.sld-vl300to500-1 {--sld-vl-color: #7F6C00}
.sld-vl300to500-2 {--sld-vl-color: #F6B2FF}
.sld-vl300to500-3 {--sld-vl-color: #996700}
.sld-vl300to500-4 {--sld-vl-color: #FF85EB}
.sld-vl300to500-5 {--sld-vl-color: #B25B00}
.sld-vl300to500-6 {--sld-vl-color: #FF59B5}
.sld-vl300to500-7 {--sld-vl-color: #CC4400}
.sld-vl300to500-8 {--sld-vl-color: #FF2C67}
.sld-vl300to500-9 {--sld-vl-color: #E52600}
.sld-vl180to300-0 {--sld-vl-color: #218B21}
.sld-vl180to300-1 {--sld-vl-color: #0D4940}
.sld-vl180to300-2 {--sld-vl-color: #DFDAB9}
.sld-vl180to300-3 {--sld-vl-color: #105640}
.sld-vl180to300-4 {--sld-vl-color: #C2CB92}
.sld-vl180to300-5 {--sld-vl-color: #14643C}
.sld-vl180to300-6 {--sld-vl-color: #95B66B}
.sld-vl180to300-7 {--sld-vl-color: #187036}
.sld-vl180to300-8 {--sld-vl-color: #5FA046}
.sld-vl180to300-9 {--sld-vl-color: #1C7E2D}
.sld-vl120to180-0 {--sld-vl-color: #00AFAE}
.sld-vl120to180-1 {--sld-vl-color: #000D58}
.sld-vl120to180-2 {--sld-vl-color: #B8E7B2}
.sld-vl120to180-3 {--sld-vl-color: #002169}
.sld-vl120to180-4 {--sld-vl-color: #85D993}
.sld-vl120to180-5 {--sld-vl-color: #003C7B}
.sld-vl120to180-6 {--sld-vl-color: #59CB8B}
.sld-vl120to180-7 {--sld-vl-color: #005C8C}
.sld-vl120to180-8 {--sld-vl-color: #2CBD94}
.sld-vl120to180-9 {--sld-vl-color: #00839E}
.sld-vl70to120-0 {--sld-vl-color: #CC5500}
.sld-vl70to120-1 {--sld-vl-color: #4A6600}
.sld-vl70to120-2 {--sld-vl-color: #EFB2DD}
.sld-vl70to120-3 {--sld-vl-color: #6E7A00}
.sld-vl70to120-4 {--sld-vl-color: #E685AE}
.sld-vl70to120-5 {--sld-vl-color: #8E8400}
.sld-vl70to120-6 {--sld-vl-color: #DD596B}
.sld-vl70to120-7 {--sld-vl-color: #A37B00}
.sld-vl70to120-8 {--sld-vl-color: #D4432C}
.sld-vl70to120-9 {--sld-vl-color: #B76B00}
.sld-vl50to70-0 {--sld-vl-color: #A020EF}
.sld-vl50to70-1 {--sld-vl-color: #7F0848}
.sld-vl50to70-2 {--sld-vl-color: #B7DBFE}
.sld-vl50to70-3 {--sld-vl-color: #960C6D}
.sld-vl50to70-4 {--sld-vl-color: #8DA6FE}
.sld-vl50to70-5 {--sld-vl-color: #AD109A}
.sld-vl50to70-6 {--sld-vl-color: #6F66FB}
.sld-vl50to70-7 {--sld-vl-color: #BC14C4}
.sld-vl50to70-8 {--sld-vl-color: #7F42F6}
.sld-vl50to70-9 {--sld-vl-color: #B11AD9}
.sld-vl30to50-0 {--sld-vl-color: #FF8290}
.sld-vl30to50-1 {--sld-vl-color: #7F6F41}
.sld-vl30to50-2 {--sld-vl-color: #F6D9FF}
.sld-vl30to50-3 {--sld-vl-color: #99784E}
.sld-vl30to50-4 {--sld-vl-color: #FFC3FB}
.sld-vl30to50-5 {--sld-vl-color: #B27D5B}
.sld-vl30to50-6 {--sld-vl-color: #FFADE3}
.sld-vl30to50-7 {--sld-vl-color: #CC7E68}
.sld-vl30to50-8 {--sld-vl-color: #FF97BF}
.sld-vl30to50-9 {--sld-vl-color: #E57B75}
.sld-vl0to30-0 {--sld-vl-color: #AAAE27}
.sld-vl0to30-1 {--sld-vl-color: #195B0F}
.sld-vl0to30-2 {--sld-vl-color: #EABABE}
.sld-vl0to30-3 {--sld-vl-color: #2D6C13}
.sld-vl0to30-4 {--sld-vl-color: #DDA193}
.sld-vl0to30-5 {--sld-vl-color: #477D17}
.sld-vl0to30-6 {--sld-vl-color: #CE9A6E}
.sld-vl0to30-7 {--sld-vl-color: #648D1C}
.sld-vl0to30-8 {--sld-vl-color: #BEA04A}
.sld-vl0to30-9 {--sld-vl-color: #869D22}
/* ----------------------------------------------------------------------- */
/* File : highlightLineStates.css ---------------------------------------- */
.sld-wire.sld-feeder-disconnected {stroke: black}
.sld-wire.sld-feeder-connected-disconnected {stroke-dasharray: 3,3}
.sld-wire.sld-feeder-disconnected-connected {stroke: black; stroke-dasharray: 3,3}
.sld-busbar-section.sld-bus-disconnected {stroke-dasharray: 3,3}/* ----------------------------------------------------------------------- */
/* File : components.css ------------------------------------------------- */
/* Stroke black */
.sld-disconnector {stroke-width: 3; stroke: black; fill: none}
/* Stroke blue */
.sld-breaker {stroke-width: 2; stroke: blue; fill:white}
.sld-load-break-switch {stroke: blue; fill: white}
/* Stroke --sld-vl-color with fallback black */
.sld-bus-connection {fill: var(--sld-vl-color, black)}
.sld-cell-shape-flat .sld-bus-connection {visibility: hidden}
.sld-busbar-section {stroke: var(--sld-vl-color, black); stroke-width: 3; fill: none}
/* Stroke --sld-vl-color with fallback red */
.sld-wire {stroke: var(--sld-vl-color, #c80000); fill: none}
.sld-wire.sld-dangling-line {stroke-width: 2px}
.sld-wire.sld-tie-line {stroke-width: 2px}
/* Stroke --sld-vl-color with fallback blue */
.sld-load {stroke: var(--sld-vl-color, blue); fill: none}
.sld-battery {stroke: var(--sld-vl-color, blue); fill: none}
.sld-generator {stroke: var(--sld-vl-color, blue); fill: none}
.sld-two-wt {stroke: var(--sld-vl-color, blue); fill: none}
.sld-three-wt {stroke: var(--sld-vl-color, blue); fill: none}
.sld-winding {stroke: var(--sld-vl-color, blue); fill: none}
.sld-capacitor {stroke: var(--sld-vl-color, blue); fill: none}
.sld-inductor {stroke: var(--sld-vl-color, blue); fill: none}
.sld-pst {stroke: var(--sld-vl-color, blue); fill: none}
.sld-pst-arrow {stroke: black; fill: none}
.sld-svc {stroke: var(--sld-vl-color, blue); fill: none}
.sld-vsc {stroke: var(--sld-vl-color, blue); font-size: 7.43px; fill: none}
.sld-lcc {stroke: var(--sld-vl-color, blue); font-size: 7.43px; fill: none}
.sld-ground {stroke: var(--sld-vl-color, blue); fill: none}
/* Stroke none & fill: --sld-vl-color */
.sld-node-infos {stroke: none; fill: var(--sld-vl-color, black)}
/* Stroke none & fill: black */
.sld-node {stroke: none; fill: black}
.sld-flash {stroke: none; fill: black}
.sld-lock {stroke: none; fill: black}
.sld-unknown {stroke: none; fill: black}
/* Fonts */
.sld-label {stroke: none; fill: black; font: 8px serif}
.sld-bus-legend-info {font: 10px serif}
.sld-graph-label {font: 12px serif}
/* Specific */
.sld-grid {stroke: #003700; stroke-dasharray: 1,10}
.sld-feeder-info.sld-active-power {fill:black}
.sld-feeder-info.sld-reactive-power {fill:blue}
.sld-feeder-info.sld-current {fill:purple}
.sld-frame {fill: var(--sld-background-color, transparent)}
/* Stroke maroon for fictitious switch */
.sld-breaker.sld-fictitious {stroke: maroon}
.sld-disconnector.sld-fictitious {stroke: maroon}
.sld-load-break-switch.sld-fictitious {stroke: maroon}
.sld-busbar-section.sld-fictitious {stroke: var(--sld-vl-color, #c80000); stroke-width: 1}
/* ground disconnector specific */
.sld-ground-disconnection-attach {stroke: var(--sld-vl-color, #c80000); fill: none}
.sld-open .sld-ground-disconnection-ground {stroke: black; fill: none}
.sld-closed .sld-ground-disconnection-ground {stroke: var(--sld-vl-color, #c80000); fill: none}
.sld-ground-disconnection .sld-sw-open {stroke: black; fill: none}
.sld-ground-disconnection .sld-sw-closed {stroke: black; fill: none}

]]></style>
    <rect class="sld-frame" height="100%" width="100%"/>
    <g>
        <g id="LABEL_VL_BRIENP3">
            <text class="sld-graph-label" x="40.0" y="60.0">BRIENP3</text>
        </g>
        <g class="sld-busbar-section sld-vl50to70-0" id="idBRIENP3_95_1_46_1" transform="translate(52.5,252.0)">
            <line x1="0" x2="125.0" y1="0" y2="0"/>
            <text class="sld-label" id="BRIENP3_1.1_NW_LABEL" x="-5.0" y="-5.0">1.1</text>
        </g>
        <g class="sld-busbar-section sld-vl50to70-0" id="idBRIENP3_95_1_46_2" transform="translate(252.5,252.0)">
            <line x1="0" x2="125.0" y1="0" y2="0"/>
            <text class="sld-label" id="BRIENP3_1.2_NW_LABEL" x="-5.0" y="-5.0">1.2</text>
        </g>
        <g class="sld-busbar-section sld-vl50to70-0" id="idBRIENP3_95_1_46_3" transform="translate(452.5,252.0)">
            <line x1="0" x2="25.0" y1="0" y2="0"/>
            <text class="sld-label" id="BRIENP3_1.3_NW_LABEL" x="-5.0" y="-5.0">1.3</text>
        </g>
        <g class="sld-intern-cell sld-cell-shape-flat" id="idINTERN_32_0">
            <g class="sld-wire sld-vl50to70-0" id="_95_BRIENP3_95_BRIENP3_95_1_46_1_95_BUSCO_95_BRIENP3_95_1_46_1_95_BRIENP3_95_BRIEN3CBO_46_1_32_SS_46_1_46_12_95_OC">
                <polyline points="177.5,252.0,190.0,252.0"/>
            </g>
            <g class="sld-wire sld-vl50to70-0" id="_95_BRIENP3_95_INTERNAL_95_BRIENP3_95_BUSCO_95_BRIENP3_95_1_46_1_95_BRIENP3_95_BRIEN3CBO_46_1_32_SS_46_1_46_12_95_OC_45_BRIENP3_95_BRIEN3CBO_46_1_32_SS_46_1_46_12_95_OC_95_BRIENP3_95_BRIEN3CBO_46_1_32_SS_46_1_46_12_95_OC">
                <polyline points="190.0,252.0,215.0,252.0"/>
            </g>
            <g class="sld-wire sld-vl50to70-0" id="_95_BRIENP3_95_BRIENP3_95_BRIEN3CBO_46_1_32_SS_46_1_46_12_95_OC_95_INTERNAL_95_BRIENP3_95_BUSCO_95_BRIENP3_95_1_46_2_95_BRIENP3_95_BRIEN3CBO_46_1_32_SS_46_1_46_12_95_OC_45_BRIENP3_95_BRIEN3CBO_46_1_32_SS_46_1_46_12_95_OC">
                <polyline points="215.0,252.0,240.0,252.0"/>
            </g>
            <g class="sld-wire sld-vl50to70-0" id="_95_BRIENP3_95_BUSCO_95_BRIENP3_95_1_46_2_95_BRIENP3_95_BRIEN3CBO_46_1_32_SS_46_1_46_12_95_OC_95_BRIENP3_95_1_46_2">
                <polyline points="240.0,252.0,252.5,252.0"/>
            </g>
            <g class="sld-bus-connection sld-fictitious sld-vl50to70-0" id="idBUSCO_95_BRIENP3_95_1_46_1_95_BRIENP3_95_BRIEN3CBO_46_1_32_SS_46_1_46_12_95_OC" transform="translate(186.0,248.0)">
                <circle cx="4" cy="4" r="4"/>
            </g>
            <g class="sld-node sld-hidden-node sld-fictitious sld-vl50to70-0" id="idINTERNAL_95_BRIENP3_95_BUSCO_95_BRIENP3_95_1_46_1_95_BRIENP3_95_BRIEN3CBO_46_1_32_SS_46_1_46_12_95_OC_45_BRIENP3_95_BRIEN3CBO_46_1_32_SS_46_1_46_12_95_OC" transform="translate(186.0,248.0)">
                <circle cx="4" cy="4" r="4"/>
            </g>
            <g class="sld-disconnector sld-closed sld-vl50to70-0" id="idBRIENP3_95_BRIEN3CBO_46_1_32_SS_46_1_46_12_95_OC" transform="translate(211.0,248.0)">
                <title>BRIEN3CBO.1 SS.1.12_OC</title>
                <path class="sld-sw-closed" d="M0,0 8,8 M8,0 0,8"/>
                <path class="sld-sw-open" d="M8,0 0,8"/>
            </g>
            <g class="sld-node sld-hidden-node sld-fictitious sld-vl50to70-0" id="idINTERNAL_95_BRIENP3_95_BUSCO_95_BRIENP3_95_1_46_2_95_BRIENP3_95_BRIEN3CBO_46_1_32_SS_46_1_46_12_95_OC_45_BRIENP3_95_BRIEN3CBO_46_1_32_SS_46_1_46_12_95_OC" transform="translate(236.0,248.0)">
                <circle cx="4" cy="4" r="4"/>
            </g>
            <g class="sld-bus-connection sld-fictitious sld-vl50to70-0" id="idBUSCO_95_BRIENP3_95_1_46_2_95_BRIENP3_95_BRIEN3CBO_46_1_32_SS_46_1_46_12_95_OC" transform="translate(236.0,248.0)">
                <circle cx="4" cy="4" r="4"/>
            </g>
        </g>
        <g class="sld-intern-cell sld-cell-shape-flat" id="idINTERN_32_1">
            <g class="sld-wire sld-vl50to70-0" id="_95_BRIENP3_95_BRIENP3_95_1_46_2_95_BUSCO_95_BRIENP3_95_1_46_2_95_BRIENP3_95_BRIEN3CBO_46_1_32_SS_46_1_46_23_95_OC">
                <polyline points="377.5,252.0,390.0,252.0"/>
            </g>
            <g class="sld-wire sld-vl50to70-0" id="_95_BRIENP3_95_INTERNAL_95_BRIENP3_95_BUSCO_95_BRIENP3_95_1_46_2_95_BRIENP3_95_BRIEN3CBO_46_1_32_SS_46_1_46_23_95_OC_45_BRIENP3_95_BRIEN3CBO_46_1_32_SS_46_1_46_23_95_OC_95_BRIENP3_95_BRIEN3CBO_46_1_32_SS_46_1_46_23_95_OC">
                <polyline points="390.0,252.0,415.0,252.0"/>
            </g>
            <g class="sld-wire sld-vl50to70-0" id="_95_BRIENP3_95_BRIENP3_95_BRIEN3CBO_46_1_32_SS_46_1_46_23_95_OC_95_INTERNAL_95_BRIENP3_95_BUSCO_95_BRIENP3_95_1_46_3_95_BRIENP3_95_BRIEN3CBO_46_1_32_SS_46_1_46_23_95_OC_45_BRIENP3_95_BRIEN3CBO_46_1_32_SS_46_1_46_23_95_OC">
                <polyline points="415.0,252.0,440.0,252.0"/>
            </g>
            <g class="sld-wire sld-vl50to70-0" id="_95_BRIENP3_95_BUSCO_95_BRIENP3_95_1_46_3_95_BRIENP3_95_BRIEN3CBO_46_1_32_SS_46_1_46_23_95_OC_95_BRIENP3_95_1_46_3">
                <polyline points="440.0,252.0,452.5,252.0"/>
            </g>
            <g class="sld-bus-connection sld-fictitious sld-vl50to70-0" id="idBUSCO_95_BRIENP3_95_1_46_2_95_BRIENP3_95_BRIEN3CBO_46_1_32_SS_46_1_46_23_95_OC" transform="translate(386.0,248.0)">
                <circle cx="4" cy="4" r="4"/>
            </g>
            <g class="sld-node sld-hidden-node sld-fictitious sld-vl50to70-0" id="idINTERNAL_95_BRIENP3_95_BUSCO_95_BRIENP3_95_1_46_2_95_BRIENP3_95_BRIEN3CBO_46_1_32_SS_46_1_46_23_95_OC_45_BRIENP3_95_BRIEN3CBO_46_1_32_SS_46_1_46_23_95_OC" transform="translate(386.0,248.0)">
                <circle cx="4" cy="4" r="4"/>
            </g>
            <g class="sld-disconnector sld-closed sld-vl50to70-0" id="idBRIENP3_95_BRIEN3CBO_46_1_32_SS_46_1_46_23_95_OC" transform="translate(411.0,248.0)">
                <title>BRIEN3CBO.1 SS.1.23_OC</title>
                <path class="sld-sw-closed" d="M0,0 8,8 M8,0 0,8"/>
                <path class="sld-sw-open" d="M8,0 0,8"/>
            </g>
            <g class="sld-node sld-hidden-node sld-fictitious sld-vl50to70-0" id="idINTERNAL_95_BRIENP3_95_BUSCO_95_BRIENP3_95_1_46_3_95_BRIENP3_95_BRIEN3CBO_46_1_32_SS_46_1_46_23_95_OC_45_BRIENP3_95_BRIEN3CBO_46_1_32_SS_46_1_46_23_95_OC" transform="translate(436.0,248.0)">
                <circle cx="4" cy="4" r="4"/>
            </g>
            <g class="sld-bus-connection sld-fictitious sld-vl50to70-0" id="idBUSCO_95_BRIENP3_95_1_46_3_95_BRIENP3_95_BRIEN3CBO_46_1_32_SS_46_1_46_23_95_OC" transform="translate(436.0,248.0)">
                <circle cx="4" cy="4" r="4"/>
            </g>
        </g>
        <g class="sld-extern-cell sld-cell-direction-top" id="idEXTERN_32_2">
            <g class="sld-wire sld-vl50to70-0" id="_95_BRIENP3_95_BUSCO_95_BRIENP3_95_1_46_1_95_BRIENP3_95_BRIEN3SSDIZ_46_1_32_DJ_95_OC_95_INTERNAL_95_BRIENP3_95_BUSCO_95_BRIENP3_95_1_46_1_95_BRIENP3_95_BRIEN3SSDIZ_46_1_32_DJ_95_OC_45_BRIENP3_95_BRIEN3SSDIZ_46_1_32_DJ_95_OC">
                <polyline points="165.0,252.0,165.0,222.0"/>
            </g>
            <g class="sld-wire sld-vl50to70-0" id="_95_BRIENP3_95_INTERNAL_95_BRIENP3_95_BUSCO_95_BRIENP3_95_1_46_1_95_BRIENP3_95_BRIEN3SSDIZ_46_1_32_DJ_95_OC_45_BRIENP3_95_BRIEN3SSDIZ_46_1_32_DJ_95_OC_95_BRIENP3_95_BRIEN3SSDIZ_46_1_32_DJ_95_OC">
                <polyline points="165.0,222.0,165.0,192.0"/>
            </g>
            <g class="sld-wire sld-vl50to70-0" id="_95_BRIENP3_95_BRIENP3_95_BRIEN3SSDIZ_46_1_32_DJ_95_OC_95_INTERNAL_95_BRIENP3_95_BRIENL31SSDIZ_95_ONE">
                <polyline points="165.0,172.0,165.0,142.0"/>
            </g>
            <g class="sld-wire sld-vl50to70-0" id="_95_BRIENP3_95_INTERNAL_95_BRIENP3_95_BRIENL31SSDIZ_95_ONE_95_BRIENL31SSDIZ_95_ONE">
                <polyline points="165.0,142.0,165.0,80.0"/>
            </g>
            <g class="sld-active-power sld-feeder-info sld-in" id="idBRIENL31SSDIZ_95_ONE_ARROW_ACTIVE" transform="translate(160.0,95.0)">
                <polygon class="sld-arrow-out" points="5,0 10,10 0,10"/>
                <polygon class="sld-arrow-in" points="0,0 10,0 5,10"/>
                <text class="sld-label" x="15.0" y="5.0">-10 MW</text>
            </g>
            <g class="sld-reactive-power sld-feeder-info sld-out" id="idBRIENL31SSDIZ_95_ONE_ARROW_REACTIVE" transform="translate(160.0,115.0)">
                <polygon class="sld-arrow-out" points="5,0 10,10 0,10"/>
                <polygon class="sld-arrow-in" points="0,0 10,0 5,10"/>
                <text class="sld-label" x="15.0" y="5.0">2</text>
            </g>
            <g class="sld-current sld-feeder-info sld-out" id="idBRIENL31SSDIZ_95_ONE_ARROW_CURRENT" transform="translate(160.0,135.0)">
                <polygon class="sld-arrow-out" points="5,0 10,10 0,10"/>
                <polygon class="sld-arrow-in" points="0,0 10,0 5,10"/>
                <text class="sld-label" x="15.0" y="5.0">87</text>
            </g>
            <g class="sld-bus-connection sld-fictitious sld-vl50to70-0" id="idBUSCO_95_BRIENP3_95_1_46_1_95_BRIENP3_95_BRIEN3SSDIZ_46_1_32_DJ_95_OC" transform="translate(161.0,248.0)">
                <circle cx="4" cy="4" r="4"/>
            </g>
            <g class="sld-node sld-hidden-node sld-fictitious sld-vl50to70-0" id="idINTERNAL_95_BRIENP3_95_BUSCO_95_BRIENP3_95_1_46_1_95_BRIENP3_95_BRIEN3SSDIZ_46_1_32_DJ_95_OC_45_BRIENP3_95_BRIEN3SSDIZ_46_1_32_DJ_95_OC" transform="translate(161.0,218.0)">
                <circle cx="4" cy="4" r="4"/>
            </g>
            <g class="sld-breaker sld-closed sld-vl50to70-0" id="idBRIENP3_95_BRIEN3SSDIZ_46_1_32_DJ_95_OC" transform="translate(155.0,172.0)">
                <title>BRIEN3SSDIZ.1 DJ_OC</title>
                <path class="sld-sw-closed" d="M1,1 V19 H19 V1z M10,5 V15"/>
                <path class="sld-sw-open" d="M1,1 V19 H19 V1z M5,10 H15"/>
            </g>
            <g class="sld-node sld-hidden-node sld-fictitious sld-vl50to70-0" id="idINTERNAL_95_BRIENP3_95_BRIENL31SSDIZ_95_ONE" transform="translate(161.0,138.0)">
                <circle cx="4" cy="4" r="4"/>
            </g>
            <g class="sld-top-feeder" id="idBRIENL31SSDIZ_95_ONE" transform="translate(165.0,80.0)">
                <text class="sld-label" id="BRIENL31SSDIZ_ONE_N_LABEL" text-anchor="middle" transform="rotate(-15,0,0)" x="0.0" y="-5.0">BRIENL31SSDIZ</text>
            </g>
        </g>
        <g class="sld-extern-cell sld-cell-direction-bottom" id="idEXTERN_32_3">
            <g class="sld-wire sld-vl50to70-0" id="_95_BRIENP3_95_BUSCO_95_BRIENP3_95_1_46_1_95_BRIENP3_95_BRIEN3TR311_32_DJ_46_HT_95_OC_95_INTERNAL_95_BRIENP3_95_BUSCO_95_BRIENP3_95_1_46_1_95_BRIENP3_95_BRIEN3TR311_32_DJ_46_HT_95_OC_45_BRIENP3_95_BRIEN3TR311_32_DJ_46_HT_95_OC">
                <polyline points="90.0,252.0,90.0,282.0"/>
            </g>
            <g class="sld-wire sld-vl50to70-0" id="_95_BRIENP3_95_INTERNAL_95_BRIENP3_95_BUSCO_95_BRIENP3_95_1_46_1_95_BRIENP3_95_BRIEN3TR311_32_DJ_46_HT_95_OC_45_BRIENP3_95_BRIEN3TR311_32_DJ_46_HT_95_OC_95_BRIENP3_95_BRIEN3TR311_32_DJ_46_HT_95_OC">
                <polyline points="90.0,282.0,90.0,299.0"/>
            </g>
            <g class="sld-wire sld-vl50to70-0" id="_95_BRIENP3_95_BRIENP3_95_BRIEN3TR311_32_DJ_46_HT_95_OC_95_INTERNAL_95_BRIENP3_95_7">
                <polyline points="90.0,319.0,90.0,336.0"/>
            </g>
            <g class="sld-wire sld-vl50to70-0" id="_95_BRIENP3_95_BRIENP3_95_BRIENP3_45_N3_95_DJ_95_F_95_INTERNAL_95_BRIENP3_95_7">
                <polyline points="65.0,353.0,65.0,336.0,90.0,336.0"/>
            </g>
            <g class="sld-wire sld-vl50to70-0" id="_95_BRIENP3_95_BRIENP3_95_BRIENP3_45_BRIEN3TR311_95_DJ_95_F_95_INTERNAL_95_BRIENP3_95_7">
                <polyline points="115.0,353.0,115.0,336.0,90.0,336.0"/>
            </g>
            <g class="sld-wire sld-vl50to70-0" id="_95_BRIENP3_95_INTERNAL_95_BRIENP3_95_BRIENIN3_95_BRIENP3_95_BRIENP3_45_N3_95_DJ_95_F">
                <polyline points="65.0,390.0,65.0,373.0"/>
            </g>
            <g class="sld-wire sld-vl50to70-0" id="_95_BRIENP3_95_BRIENIN3_95_INTERNAL_95_BRIENP3_95_BRIENIN3">
                <polyline points="65.0,446.0,65.0,390.0"/>
            </g>
            <g class="sld-current sld-feeder-info sld-in" id="idBRIENIN3_ARROW_CURRENT" transform="translate(60.0,421.0)">
                <polygon class="sld-arrow-out" points="5,0 10,10 0,10" transform="rotate(180.0,5.0,5.0)"/>
                <polygon class="sld-arrow-in" points="0,0 10,0 5,10" transform="rotate(180.0,5.0,5.0)"/>
                <text class="sld-label" x="15.0" y="5.0">0</text>
            </g>
            <g class="sld-reactive-power sld-feeder-info sld-in" id="idBRIENIN3_ARROW_REACTIVE" transform="translate(60.0,401.0)">
                <polygon class="sld-arrow-out" points="5,0 10,10 0,10" transform="rotate(180.0,5.0,5.0)"/>
                <polygon class="sld-arrow-in" points="0,0 10,0 5,10" transform="rotate(180.0,5.0,5.0)"/>
                <text class="sld-label" x="15.0" y="5.0">-0</text>
            </g>
            <g class="sld-active-power sld-feeder-info sld-in" id="idBRIENIN3_ARROW_ACTIVE" transform="translate(60.0,381.0)">
                <polygon class="sld-arrow-out" points="5,0 10,10 0,10" transform="rotate(180.0,5.0,5.0)"/>
                <polygon class="sld-arrow-in" points="0,0 10,0 5,10" transform="rotate(180.0,5.0,5.0)"/>
                <text class="sld-label" x="15.0" y="5.0">-0 MW</text>
            </g>
            <g class="sld-wire sld-vl50to70-0" id="_95_BRIENP3_95_INTERNAL_95_BRIENP3_95_BRIEN3TR311_95_BRIENP3_95_BRIENP3_45_BRIEN3TR311_95_DJ_95_F">
                <polyline points="115.0,390.0,115.0,373.0"/>
            </g>
            <g class="sld-wire sld-vl50to70-0" id="_95_BRIENP3_95_BRIEN3TR311_95_INTERNAL_95_BRIENP3_95_BRIEN3TR311">
                <polyline points="115.0,447.5,115.0,390.0"/>
            </g>
            <g class="sld-current sld-feeder-info sld-out" id="idBRIEN3TR311_ARROW_CURRENT" transform="translate(110.0,422.5)">
                <polygon class="sld-arrow-out" points="5,0 10,10 0,10" transform="rotate(180.0,5.0,5.0)"/>
                <polygon class="sld-arrow-in" points="0,0 10,0 5,10" transform="rotate(180.0,5.0,5.0)"/>
                <text class="sld-label" x="15.0" y="5.0">79</text>
            </g>
            <g class="sld-reactive-power sld-feeder-info sld-in" id="idBRIEN3TR311_ARROW_REACTIVE" transform="translate(110.0,402.5)">
                <polygon class="sld-arrow-out" points="5,0 10,10 0,10" transform="rotate(180.0,5.0,5.0)"/>
                <polygon class="sld-arrow-in" points="0,0 10,0 5,10" transform="rotate(180.0,5.0,5.0)"/>
                <text class="sld-label" x="15.0" y="5.0">-0</text>
            </g>
            <g class="sld-active-power sld-feeder-info sld-out" id="idBRIEN3TR311_ARROW_ACTIVE" transform="translate(110.0,382.5)">
                <polygon class="sld-arrow-out" points="5,0 10,10 0,10" transform="rotate(180.0,5.0,5.0)"/>
                <polygon class="sld-arrow-in" points="0,0 10,0 5,10" transform="rotate(180.0,5.0,5.0)"/>
                <text class="sld-label" x="15.0" y="5.0">9 MW</text>
            </g>
            <g class="sld-bus-connection sld-fictitious sld-vl50to70-0" id="idBUSCO_95_BRIENP3_95_1_46_1_95_BRIENP3_95_BRIEN3TR311_32_DJ_46_HT_95_OC" transform="translate(86.0,248.0)">
                <circle cx="4" cy="4" r="4"/>
            </g>
            <g class="sld-node sld-hidden-node sld-fictitious sld-vl50to70-0" id="idINTERNAL_95_BRIENP3_95_BUSCO_95_BRIENP3_95_1_46_1_95_BRIENP3_95_BRIEN3TR311_32_DJ_46_HT_95_OC_45_BRIENP3_95_BRIEN3TR311_32_DJ_46_HT_95_OC" transform="translate(86.0,278.0)">
                <circle cx="4" cy="4" r="4"/>
            </g>
            <g class="sld-breaker sld-closed sld-vl50to70-0" id="idBRIENP3_95_BRIEN3TR311_32_DJ_46_HT_95_OC" transform="translate(80.0,299.0)">
                <title>BRIEN3TR311 DJ.HT_OC</title>
                <path class="sld-sw-closed" d="M1,1 V19 H19 V1z M10,5 V15"/>
                <path class="sld-sw-open" d="M1,1 V19 H19 V1z M5,10 H15"/>
            </g>
            <g class="sld-node sld-hidden-node sld-fictitious sld-vl50to70-0" id="idINTERNAL_95_BRIENP3_95_7" transform="translate(86.0,332.0)">
                <circle cx="4" cy="4" r="4"/>
            </g>
            <g class="sld-breaker sld-closed sld-fictitious sld-vl50to70-0" id="idBRIENP3_95_BRIENP3_45_N3_95_DJ_95_F" transform="translate(55.0,353.0)">
                <title>BRIENP3-N3_DJ_F</title>
                <path class="sld-sw-closed" d="M1,1 V19 H19 V1z M10,5 V15"/>
                <path class="sld-sw-open" d="M1,1 V19 H19 V1z M5,10 H15"/>
            </g>
            <g class="sld-node sld-hidden-node sld-fictitious sld-vl50to70-0" id="idINTERNAL_95_BRIENP3_95_BRIENIN3" transform="translate(61.0,386.0)">
                <circle cx="4" cy="4" r="4"/>
            </g>
            <g class="sld-generator sld-bottom-feeder sld-vl50to70-0" id="idBRIENIN3" transform="translate(59.0,446.0)">
                <title>BRIENIN3</title>
                <circle cx="6" cy="6" r="6"/>
                <path d="M6,6 A 6 40 0 0 0 2,6"/>
                <path d="M6,6 A 6 40 0 0 0 10,6"/>
                <text class="sld-label" id="BRIENIN3_S_LABEL" text-anchor="middle" transform="rotate(15,0,0)" x="0.0" y="17.0">BRIENIN3</text>
            </g>
            <g class="sld-breaker sld-closed sld-fictitious sld-vl50to70-0" id="idBRIENP3_95_BRIENP3_45_BRIEN3TR311_95_DJ_95_F" transform="translate(105.0,353.0)">
                <title>BRIENP3-BRIEN3TR311_DJ_F</title>
                <path class="sld-sw-closed" d="M1,1 V19 H19 V1z M10,5 V15"/>
                <path class="sld-sw-open" d="M1,1 V19 H19 V1z M5,10 H15"/>
            </g>
            <g class="sld-node sld-hidden-node sld-fictitious sld-vl50to70-0" id="idINTERNAL_95_BRIENP3_95_BRIEN3TR311" transform="translate(111.0,386.0)">
                <circle cx="4" cy="4" r="4"/>
            </g>
            <g class="sld-load sld-bottom-feeder sld-vl50to70-0" id="idBRIEN3TR311" transform="translate(107.0,447.5)">
                <title>BRIEN3TR311</title>
                <rect height="9" width="16"/>
                <line x1="0" x2="16" y1="0" y2="9"/>
                <line x1="16" x2="0" y1="0" y2="9"/>
                <text class="sld-label" id="BRIEN3TR311_S_LABEL" text-anchor="middle" transform="rotate(15,0,0)" x="0.0" y="14.0">BRIEN3TR311</text>
            </g>
        </g>
        <g class="sld-extern-cell sld-cell-direction-bottom" id="idEXTERN_32_4">
            <g class="sld-wire sld-vl50to70-0" id="_95_BRIENP3_95_BUSCO_95_BRIENP3_95_1_46_2_95_BRIENP3_95_BRIEN3TR312_32_DJ_46_HT_95_OC_95_INTERNAL_95_BRIENP3_95_BUSCO_95_BRIENP3_95_1_46_2_95_BRIENP3_95_BRIEN3TR312_32_DJ_46_HT_95_OC_45_BRIENP3_95_BRIEN3TR312_32_DJ_46_HT_95_OC">
                <polyline points="315.0,252.0,315.0,282.0"/>
            </g>
            <g class="sld-wire sld-vl50to70-0" id="_95_BRIENP3_95_INTERNAL_95_BRIENP3_95_BUSCO_95_BRIENP3_95_1_46_2_95_BRIENP3_95_BRIEN3TR312_32_DJ_46_HT_95_OC_45_BRIENP3_95_BRIEN3TR312_32_DJ_46_HT_95_OC_95_BRIENP3_95_BRIEN3TR312_32_DJ_46_HT_95_OC">
                <polyline points="315.0,282.0,315.0,299.0"/>
            </g>
            <g class="sld-wire sld-vl50to70-0" id="_95_BRIENP3_95_BRIENP3_95_BRIEN3TR312_32_DJ_46_HT_95_OC_95_INTERNAL_95_BRIENP3_95_9">
                <polyline points="315.0,319.0,315.0,336.0"/>
            </g>
            <g class="sld-wire sld-vl50to70-0" id="_95_BRIENP3_95_BRIENP3_95_BRIENP3_45_N1_95_DJ_95_F_95_INTERNAL_95_BRIENP3_95_9">
                <polyline points="265.0,353.0,265.0,336.0,315.0,336.0"/>
            </g>
            <g class="sld-wire sld-vl50to70-0" id="_95_BRIENP3_95_BRIENP3_95_BRIENP3_45_N2_95_DJ_95_F_95_INTERNAL_95_BRIENP3_95_9">
                <polyline points="315.0,353.0,315.0,336.0"/>
            </g>
            <g class="sld-wire sld-vl50to70-0" id="_95_BRIENP3_95_BRIENP3_95_BRIENP3_45_BRIEN3TR312_95_DJ_95_F_95_INTERNAL_95_BRIENP3_95_9">
                <polyline points="365.0,353.0,365.0,336.0,315.0,336.0"/>
            </g>
            <g class="sld-wire sld-vl50to70-0" id="_95_BRIENP3_95_INTERNAL_95_BRIENP3_95_BRIENIN1_95_BRIENP3_95_BRIENP3_45_N1_95_DJ_95_F">
                <polyline points="265.0,390.0,265.0,373.0"/>
            </g>
            <g class="sld-wire sld-vl50to70-0" id="_95_BRIENP3_95_BRIENIN1_95_INTERNAL_95_BRIENP3_95_BRIENIN1">
                <polyline points="265.0,446.0,265.0,390.0"/>
            </g>
            <g class="sld-current sld-feeder-info sld-out" id="idBRIENIN1_ARROW_CURRENT" transform="translate(260.0,421.0)">
                <polygon class="sld-arrow-out" points="5,0 10,10 0,10" transform="rotate(180.0,5.0,5.0)"/>
                <polygon class="sld-arrow-in" points="0,0 10,0 5,10" transform="rotate(180.0,5.0,5.0)"/>
                <text class="sld-label" x="15.0" y="5.0">3</text>
            </g>
            <g class="sld-reactive-power sld-feeder-info sld-in" id="idBRIENIN1_ARROW_REACTIVE" transform="translate(260.0,401.0)">
                <polygon class="sld-arrow-out" points="5,0 10,10 0,10" transform="rotate(180.0,5.0,5.0)"/>
                <polygon class="sld-arrow-in" points="0,0 10,0 5,10" transform="rotate(180.0,5.0,5.0)"/>
                <text class="sld-label" x="15.0" y="5.0">-0</text>
            </g>
            <g class="sld-active-power sld-feeder-info sld-in" id="idBRIENIN1_ARROW_ACTIVE" transform="translate(260.0,381.0)">
                <polygon class="sld-arrow-out" points="5,0 10,10 0,10" transform="rotate(180.0,5.0,5.0)"/>
                <polygon class="sld-arrow-in" points="0,0 10,0 5,10" transform="rotate(180.0,5.0,5.0)"/>
                <text class="sld-label" x="15.0" y="5.0">-0 MW</text>
            </g>
            <g class="sld-wire sld-vl50to70-0" id="_95_BRIENP3_95_INTERNAL_95_BRIENP3_95_BRIENIN2_95_BRIENP3_95_BRIENP3_45_N2_95_DJ_95_F">
                <polyline points="315.0,390.0,315.0,373.0"/>
            </g>
            <g class="sld-wire sld-vl50to70-0" id="_95_BRIENP3_95_BRIENIN2_95_INTERNAL_95_BRIENP3_95_BRIENIN2">
                <polyline points="315.0,446.0,315.0,390.0"/>
            </g>
            <g class="sld-current sld-feeder-info sld-out" id="idBRIENIN2_ARROW_CURRENT" transform="translate(310.0,421.0)">
                <polygon class="sld-arrow-out" points="5,0 10,10 0,10" transform="rotate(180.0,5.0,5.0)"/>
                <polygon class="sld-arrow-in" points="0,0 10,0 5,10" transform="rotate(180.0,5.0,5.0)"/>
                <text class="sld-label" x="15.0" y="5.0">3</text>
            </g>
            <g class="sld-reactive-power sld-feeder-info sld-in" id="idBRIENIN2_ARROW_REACTIVE" transform="translate(310.0,401.0)">
                <polygon class="sld-arrow-out" points="5,0 10,10 0,10" transform="rotate(180.0,5.0,5.0)"/>
                <polygon class="sld-arrow-in" points="0,0 10,0 5,10" transform="rotate(180.0,5.0,5.0)"/>
                <text class="sld-label" x="15.0" y="5.0">-0</text>
            </g>
            <g class="sld-active-power sld-feeder-info sld-in" id="idBRIENIN2_ARROW_ACTIVE" transform="translate(310.0,381.0)">
                <polygon class="sld-arrow-out" points="5,0 10,10 0,10" transform="rotate(180.0,5.0,5.0)"/>
                <polygon class="sld-arrow-in" points="0,0 10,0 5,10" transform="rotate(180.0,5.0,5.0)"/>
                <text class="sld-label" x="15.0" y="5.0">-0 MW</text>
            </g>
            <g class="sld-wire sld-vl50to70-0" id="_95_BRIENP3_95_INTERNAL_95_BRIENP3_95_BRIEN3TR312_95_BRIENP3_95_BRIENP3_45_BRIEN3TR312_95_DJ_95_F">
                <polyline points="365.0,390.0,365.0,373.0"/>
            </g>
            <g class="sld-wire sld-vl50to70-0" id="_95_BRIENP3_95_BRIEN3TR312_95_INTERNAL_95_BRIENP3_95_BRIEN3TR312">
                <polyline points="365.0,447.5,365.0,390.0"/>
            </g>
            <g class="sld-current sld-feeder-info sld-out" id="idBRIEN3TR312_ARROW_CURRENT" transform="translate(360.0,422.5)">
                <polygon class="sld-arrow-out" points="5,0 10,10 0,10" transform="rotate(180.0,5.0,5.0)"/>
                <polygon class="sld-arrow-in" points="0,0 10,0 5,10" transform="rotate(180.0,5.0,5.0)"/>
                <text class="sld-label" x="15.0" y="5.0">79</text>
            </g>
            <g class="sld-reactive-power sld-feeder-info sld-in" id="idBRIEN3TR312_ARROW_REACTIVE" transform="translate(360.0,402.5)">
                <polygon class="sld-arrow-out" points="5,0 10,10 0,10" transform="rotate(180.0,5.0,5.0)"/>
                <polygon class="sld-arrow-in" points="0,0 10,0 5,10" transform="rotate(180.0,5.0,5.0)"/>
                <text class="sld-label" x="15.0" y="5.0">-0</text>
            </g>
            <g class="sld-active-power sld-feeder-info sld-out" id="idBRIEN3TR312_ARROW_ACTIVE" transform="translate(360.0,382.5)">
                <polygon class="sld-arrow-out" points="5,0 10,10 0,10" transform="rotate(180.0,5.0,5.0)"/>
                <polygon class="sld-arrow-in" points="0,0 10,0 5,10" transform="rotate(180.0,5.0,5.0)"/>
                <text class="sld-label" x="15.0" y="5.0">9 MW</text>
            </g>
            <g class="sld-bus-connection sld-fictitious sld-vl50to70-0" id="idBUSCO_95_BRIENP3_95_1_46_2_95_BRIENP3_95_BRIEN3TR312_32_DJ_46_HT_95_OC" transform="translate(311.0,248.0)">
                <circle cx="4" cy="4" r="4"/>
            </g>
            <g class="sld-node sld-hidden-node sld-fictitious sld-vl50to70-0" id="idINTERNAL_95_BRIENP3_95_BUSCO_95_BRIENP3_95_1_46_2_95_BRIENP3_95_BRIEN3TR312_32_DJ_46_HT_95_OC_45_BRIENP3_95_BRIEN3TR312_32_DJ_46_HT_95_OC" transform="translate(311.0,278.0)">
                <circle cx="4" cy="4" r="4"/>
            </g>
            <g class="sld-breaker sld-closed sld-vl50to70-0" id="idBRIENP3_95_BRIEN3TR312_32_DJ_46_HT_95_OC" transform="translate(305.0,299.0)">
                <title>BRIEN3TR312 DJ.HT_OC</title>
                <path class="sld-sw-closed" d="M1,1 V19 H19 V1z M10,5 V15"/>
                <path class="sld-sw-open" d="M1,1 V19 H19 V1z M5,10 H15"/>
            </g>
            <g class="sld-node sld-hidden-node sld-fictitious sld-vl50to70-0" id="idINTERNAL_95_BRIENP3_95_9" transform="translate(311.0,332.0)">
                <circle cx="4" cy="4" r="4"/>
            </g>
            <g class="sld-breaker sld-closed sld-fictitious sld-vl50to70-0" id="idBRIENP3_95_BRIENP3_45_N1_95_DJ_95_F" transform="translate(255.0,353.0)">
                <title>BRIENP3-N1_DJ_F</title>
                <path class="sld-sw-closed" d="M1,1 V19 H19 V1z M10,5 V15"/>
                <path class="sld-sw-open" d="M1,1 V19 H19 V1z M5,10 H15"/>
            </g>
            <g class="sld-node sld-hidden-node sld-fictitious sld-vl50to70-0" id="idINTERNAL_95_BRIENP3_95_BRIENIN1" transform="translate(261.0,386.0)">
                <circle cx="4" cy="4" r="4"/>
            </g>
            <g class="sld-generator sld-bottom-feeder sld-vl50to70-0" id="idBRIENIN1" transform="translate(259.0,446.0)">
                <title>BRIENIN1</title>
                <circle cx="6" cy="6" r="6"/>
                <path d="M6,6 A 6 40 0 0 0 2,6"/>
                <path d="M6,6 A 6 40 0 0 0 10,6"/>
                <text class="sld-label" id="BRIENIN1_S_LABEL" text-anchor="middle" transform="rotate(15,0,0)" x="0.0" y="17.0">BRIENIN1</text>
            </g>
            <g class="sld-breaker sld-closed sld-fictitious sld-vl50to70-0" id="idBRIENP3_95_BRIENP3_45_N2_95_DJ_95_F" transform="translate(305.0,353.0)">
                <title>BRIENP3-N2_DJ_F</title>
                <path class="sld-sw-closed" d="M1,1 V19 H19 V1z M10,5 V15"/>
                <path class="sld-sw-open" d="M1,1 V19 H19 V1z M5,10 H15"/>
            </g>
            <g class="sld-node sld-hidden-node sld-fictitious sld-vl50to70-0" id="idINTERNAL_95_BRIENP3_95_BRIENIN2" transform="translate(311.0,386.0)">
                <circle cx="4" cy="4" r="4"/>
            </g>
            <g class="sld-generator sld-bottom-feeder sld-vl50to70-0" id="idBRIENIN2" transform="translate(309.0,446.0)">
                <title>BRIENIN2</title>
                <circle cx="6" cy="6" r="6"/>
                <path d="M6,6 A 6 40 0 0 0 2,6"/>
                <path d="M6,6 A 6 40 0 0 0 10,6"/>
                <text class="sld-label" id="BRIENIN2_S_LABEL" text-anchor="middle" transform="rotate(15,0,0)" x="0.0" y="17.0">BRIENIN2</text>
            </g>
            <g class="sld-breaker sld-closed sld-fictitious sld-vl50to70-0" id="idBRIENP3_95_BRIENP3_45_BRIEN3TR312_95_DJ_95_F" transform="translate(355.0,353.0)">
                <title>BRIENP3-BRIEN3TR312_DJ_F</title>
                <path class="sld-sw-closed" d="M1,1 V19 H19 V1z M10,5 V15"/>
                <path class="sld-sw-open" d="M1,1 V19 H19 V1z M5,10 H15"/>
            </g>
            <g class="sld-node sld-hidden-node sld-fictitious sld-vl50to70-0" id="idINTERNAL_95_BRIENP3_95_BRIEN3TR312" transform="translate(361.0,386.0)">
                <circle cx="4" cy="4" r="4"/>
            </g>
            <g class="sld-load sld-bottom-feeder sld-vl50to70-0" id="idBRIEN3TR312" transform="translate(357.0,447.5)">
                <title>BRIEN3TR312</title>
                <rect height="9" width="16"/>
                <line x1="0" x2="16" y1="0" y2="9"/>
                <line x1="16" x2="0" y1="0" y2="9"/>
                <text class="sld-label" id="BRIEN3TR312_S_LABEL" text-anchor="middle" transform="rotate(15,0,0)" x="0.0" y="14.0">BRIEN3TR312</text>
            </g>
        </g>
        <g class="sld-extern-cell sld-cell-direction-top" id="idEXTERN_32_5">
            <g class="sld-wire sld-vl50to70-0" id="_95_BRIENP3_95_BUSCO_95_BRIENP3_95_1_46_3_95_BRIENP3_95_BRIEN3CRENE_46_1_32_DJ_95_OC_95_INTERNAL_95_BRIENP3_95_BUSCO_95_BRIENP3_95_1_46_3_95_BRIENP3_95_BRIEN3CRENE_46_1_32_DJ_95_OC_45_BRIENP3_95_BRIEN3CRENE_46_1_32_DJ_95_OC">
                <polyline points="465.0,252.0,465.0,222.0"/>
            </g>
            <g class="sld-wire sld-vl50to70-0" id="_95_BRIENP3_95_INTERNAL_95_BRIENP3_95_BUSCO_95_BRIENP3_95_1_46_3_95_BRIENP3_95_BRIEN3CRENE_46_1_32_DJ_95_OC_45_BRIENP3_95_BRIEN3CRENE_46_1_32_DJ_95_OC_95_BRIENP3_95_BRIEN3CRENE_46_1_32_DJ_95_OC">
                <polyline points="465.0,222.0,465.0,192.0"/>
            </g>
            <g class="sld-wire sld-vl50to70-0" id="_95_BRIENP3_95_BRIENP3_95_BRIEN3CRENE_46_1_32_DJ_95_OC_95_INTERNAL_95_BRIENP3_95_BRIENL31CRENE_95_ONE">
                <polyline points="465.0,172.0,465.0,142.0"/>
            </g>
            <g class="sld-wire sld-vl50to70-0" id="_95_BRIENP3_95_INTERNAL_95_BRIENP3_95_BRIENL31CRENE_95_ONE_95_BRIENL31CRENE_95_ONE">
                <polyline points="465.0,142.0,465.0,80.0"/>
            </g>
            <g class="sld-active-power sld-feeder-info sld-in" id="idBRIENL31CRENE_95_ONE_ARROW_ACTIVE" transform="translate(460.0,95.0)">
                <polygon class="sld-arrow-out" points="5,0 10,10 0,10"/>
                <polygon class="sld-arrow-in" points="0,0 10,0 5,10"/>
                <text class="sld-label" x="15.0" y="5.0">-7 MW</text>
            </g>
            <g class="sld-reactive-power sld-feeder-info sld-in" id="idBRIENL31CRENE_95_ONE_ARROW_REACTIVE" transform="translate(460.0,115.0)">
                <polygon class="sld-arrow-out" points="5,0 10,10 0,10"/>
                <polygon class="sld-arrow-in" points="0,0 10,0 5,10"/>
                <text class="sld-label" x="15.0" y="5.0">-2</text>
            </g>
            <g class="sld-current sld-feeder-info sld-out" id="idBRIENL31CRENE_95_ONE_ARROW_CURRENT" transform="translate(460.0,135.0)">
                <polygon class="sld-arrow-out" points="5,0 10,10 0,10"/>
                <polygon class="sld-arrow-in" points="0,0 10,0 5,10"/>
                <text class="sld-label" x="15.0" y="5.0">68</text>
            </g>
            <g class="sld-bus-connection sld-fictitious sld-vl50to70-0" id="idBUSCO_95_BRIENP3_95_1_46_3_95_BRIENP3_95_BRIEN3CRENE_46_1_32_DJ_95_OC" transform="translate(461.0,248.0)">
                <circle cx="4" cy="4" r="4"/>
            </g>
            <g class="sld-node sld-hidden-node sld-fictitious sld-vl50to70-0" id="idINTERNAL_95_BRIENP3_95_BUSCO_95_BRIENP3_95_1_46_3_95_BRIENP3_95_BRIEN3CRENE_46_1_32_DJ_95_OC_45_BRIENP3_95_BRIEN3CRENE_46_1_32_DJ_95_OC" transform="translate(461.0,218.0)">
                <circle cx="4" cy="4" r="4"/>
            </g>
            <g class="sld-breaker sld-closed sld-vl50to70-0" id="idBRIENP3_95_BRIEN3CRENE_46_1_32_DJ_95_OC" transform="translate(455.0,172.0)">
                <title>BRIEN3CRENE.1 DJ_OC</title>
                <path class="sld-sw-closed" d="M1,1 V19 H19 V1z M10,5 V15"/>
                <path class="sld-sw-open" d="M1,1 V19 H19 V1z M5,10 H15"/>
            </g>
            <g class="sld-node sld-hidden-node sld-fictitious sld-vl50to70-0" id="idINTERNAL_95_BRIENP3_95_BRIENL31CRENE_95_ONE" transform="translate(461.0,138.0)">
                <circle cx="4" cy="4" r="4"/>
            </g>
            <g class="sld-top-feeder" id="idBRIENL31CRENE_95_ONE" transform="translate(465.0,80.0)">
                <text class="sld-label" id="BRIENL31CRENE_ONE_N_LABEL" text-anchor="middle" transform="rotate(-15,0,0)" x="0.0" y="-5.0">BRIENL31CRENE</text>
            </g>
        </g>
    </g>
</svg>
